<?xml version="1.0" standalone="no"?><!DOCTYPE svg PUBLIC "-//W3C//DTD SVG 1.1//EN" "http://www.w3.org/Graphics/SVG/1.1/DTD/svg11.dtd"><svg t="1780171928809" class="icon" viewBox="0 0 1024 1024" version="1.1" xmlns="http://www.w3.org/2000/svg" p-id="47888" xmlns:xlink="http://www.w3.org/1999/xlink" width="200" height="200"><path d="M886.1 213.5c-21.6-79.4-94.2-137.8-180.5-137.8-21.2 0-41.6 3.5-60.6 10.1-35.4-51.5-92.8-85-157.8-85-107.5 0-194.6 91.8-194.6 205.1 0 7 0.3 13.9 1 20.7-12.7-4.5-26.4-7-40.6-7-57.7 0-106 40.3-118.4 94.3C60.3 329.7 4.3 388.7 0.2 460.2l-0.2 0.1 0.2 0.2c-0.1 2.6-0.2 5.3-0.2 7.9 0 87.7 78.2 158.8 174.6 158.8 3.4 0 6.8-0.1 10.1-0.3l0.4 0.3 577.2-9.8c14.9 3.2 30.4 4.9 46.3 4.9 118.9 0 215.3-94.7 215.3-211.5 0.1-89.9-57.1-166.8-137.8-197.3z" fill="#FFFFFF" p-id="47889"></path></svg>