<?xml version="1.0" standalone="no"?><!DOCTYPE svg PUBLIC "-//W3C//DTD SVG 1.1//EN" "http://www.w3.org/Graphics/SVG/1.1/DTD/svg11.dtd"><svg t="1777207517390" class="icon" viewBox="0 0 1024 1024" version="1.1" xmlns="http://www.w3.org/2000/svg" p-id="9641" xmlns:xlink="http://www.w3.org/1999/xlink" width="200" height="200"><path d="M108.404364 223.278545L201.541818 316.416H92.672l0.465455 299.054545h142.149818c9.681455 0 19.083636 2.978909 26.856727 8.517819l4.514909 3.584 152.482909 138.612363 93.090909 84.619637v-223.697455l93.230546 93.230546v189.626181c0 44.590545-26.344727 61.067636-37.701818 66.094546a61.207273 61.207273 0 0 1-24.296728 4.980363c-12.381091 0-27.741091-3.723636-44.078545-16.430545l-6.190546-5.213091-74.053818-67.304727-201.821091-183.528727H92.672a92.951273 92.951273 0 0 1-92.439273-86.109091L0 615.470545V316.369455a93.090909 93.090909 0 0 1 85.736727-92.765091l6.935273-0.325819h15.732364z m36.398545-161.047272l791.272727 791.272727a46.498909 46.498909 0 1 1-65.815272 65.861818l-791.272728-791.272727a46.498909 46.498909 0 1 1 65.815273-65.815273z m709.306182 109.381818c6.516364 4.189091 159.976727 106.728727 159.976727 354.955636 0 116.410182-32.581818 200.610909-67.677091 257.768728l-5.259636 8.378181-65.070546-65.024c25.506909-44.823273 48.779636-110.312727 48.779637-201.076363 0-196.654545-114.315636-275.688727-119.156364-278.946909a45.754182 45.754182 0 0 1-12.846545-62.510546 43.938909 43.938909 0 0 1 61.253818-13.591273z m-144.290909 130.792727l5.399273 2.187637c4.887273 2.327273 120.413091 59.298909 120.41309 218.763636 0 52.084364-11.170909 92.765091-26.20509 124.928l-4.189091 8.564364-68.142546-68.096c5.585455-18.059636 9.355636-39.563636 9.355637-65.44291 0-100.398545-66.839273-135.586909-69.678546-137.076363A45.893818 45.893818 0 0 1 656.430545 325.818182a44.078545 44.078545 0 0 1 53.387637-23.365818zM567.575273 5.073455c21.783273 9.681455 35.467636 31.092364 37.608727 58.368l0.279273 7.540363V457.076364l-93.230546-93.230546V130.048l-93.090909 84.712727-29.323636 26.624L323.816727 175.476364l95.278546-86.574546 74.007272-67.258182c32.954182-30.021818 63.069091-21.597091 74.472728-16.570181z" p-id="9642"></path></svg>